<?xml version="1.0" encoding="utf-8"?>
<!-- Generator: Adobe Illustrator 22.1.0, SVG Export Plug-In . SVG Version: 6.00 Build 0)  -->
<!DOCTYPE svg PUBLIC "-//W3C//DTD SVG 1.1//EN" "http://www.w3.org/Graphics/SVG/1.1/DTD/svg11.dtd">
<svg version="1.1" id="Layer_1" xmlns="http://www.w3.org/2000/svg" xmlns:xlink="http://www.w3.org/1999/xlink" x="0px" y="0px"
	 viewBox="0 0 135 135" style="enable-background:new 0 0 135 135;" xml:space="preserve">
<style type="text/css">
	.st0{opacity:0.85;}
	.st1{fill:#46BDF4;}
	.st2{fill:#3366FF;}
	.st3{fill:#FFFFFF;}
	.st4{fill:none;}
	.st5{fill:#41FAA4;}
	.st6{fill:#FFA93D;}
	.st7{fill:#7A5CFF;}
	.st8{fill:#304FFE;}
	.st9{fill:url(#SVGID_1_);}
	.st10{fill:url(#SVGID_2_);}
	.st11{fill:none;stroke:#16A3FE;stroke-miterlimit:10;}
	.st12{fill:#22DBFD;}
</style>
<g>
	<g class="st0">
		<g>
			<polygon class="st1" points="10.2,80.5 10.3,80.5 23.8,91.3 23.7,91.4 			"/>
		</g>
		<g>
			
				<rect x="70.8" y="-5.8" transform="matrix(0.2851 -0.9585 0.9585 0.2851 29.8539 83.3749)" class="st2" width="0.1" height="55"/>
		</g>
		<g>
			<path class="st3" d="M124.2,56.6"/>
			<line class="st4" x1="124.2" y1="56.7" x2="124.2" y2="56.6"/>
		</g>
		<g>
			<polygon class="st1" points="123.6,92.8 102.8,84.4 102.8,84.3 123.6,92.7 			"/>
		</g>
		<g>
			<polygon class="st1" points="102.4,82.7 102.4,82.6 121.4,57.4 121.4,57.5 			"/>
		</g>
		<g>
			<polygon class="st2" points="99.4,82.7 86.2,73.8 86.2,73.7 99.6,82.6 			"/>
		</g>
		<g>
			<line class="st4" x1="84.6" y1="73.7" x2="45.9" y2="79.6"/>
			
				<rect x="45.6" y="76.6" transform="matrix(0.9883 -0.1524 0.1524 0.9883 -10.917 10.847)" class="st5" width="39.3" height="0.1"/>
		</g>
		<g>
			
				<rect x="72.6" y="54.5" transform="matrix(6.017228e-02 -0.9982 0.9982 6.017228e-02 -13.3139 149.3023)" class="st2" width="0.1" height="54.5"/>
		</g>
		<g>
			
				<rect x="72.9" y="96.5" transform="matrix(0.6873 -0.7264 0.7264 0.6873 -42.2802 94.8834)" class="st6" width="32.4" height="0.1"/>
		</g>
		<g>
			
				<rect x="30.2" y="40.6" transform="matrix(0.7864 -0.6177 0.6177 0.7864 -31.8858 31.9712)" class="st1" width="0.1" height="43"/>
		</g>
		<g>
			
				<rect x="11.2" y="28.8" transform="matrix(0.6777 -0.7353 0.7353 0.6777 -11.4164 31.6286)" class="st2" width="38.4" height="0.1"/>
		</g>
		<g>
			<line class="st4" x1="17.4" y1="44.1" x2="96.1" y2="30"/>
			<rect x="16.7" y="36.9" transform="matrix(0.9843 -0.1763 0.1763 0.9843 -5.6249 10.582)" class="st6" width="80" height="0.1"/>
		</g>
		<g>
			
				<rect x="80.1" y="34.9" transform="matrix(0.8412 -0.5407 0.5407 0.8412 -4.7785 53.6629)" class="st2" width="17.7" height="0.1"/>
		</g>
		<g>
			
				<rect x="17.2" y="42.1" transform="matrix(0.9983 -5.860639e-02 5.860639e-02 0.9983 -2.3868 2.9206)" class="st1" width="62.7" height="0.1"/>
		</g>
		<g>
			<line class="st4" x1="80.6" y1="40.7" x2="45" y2="79.2"/>
			
				<rect x="36.5" y="59.9" transform="matrix(0.6793 -0.7339 0.7339 0.6793 -23.8337 65.2921)" class="st6" width="52.5" height="0.1"/>
		</g>
		<g>
			<line class="st4" x1="121.4" y1="55.4" x2="97.9" y2="30"/>
			<polygon class="st6" points="121.4,55.4 97.9,30.1 97.9,30 121.4,55.3 			"/>
		</g>
		<g>
			<line class="st4" x1="121.4" y1="56.2" x2="81.9" y2="40.1"/>
			<polygon class="st6" points="121.4,56.3 81.9,40.2 81.9,40.1 121.4,56.2 			"/>
		</g>
		<g>
			<line class="st4" x1="120.9" y1="57" x2="86.6" y2="73.1"/>
			<polygon class="st5" points="86.6,73.2 86.6,73.1 120.9,56.9 120.9,57.1 			"/>
		</g>
		<g>
			
				<rect x="23.1" y="86" transform="matrix(0.8715 -0.4904 0.4904 0.8715 -37.8523 27.6242)" class="st2" width="21.3" height="0.1"/>
		</g>
		<g>
			
				<rect x="10.6" y="80.2" transform="matrix(0.9999 -1.562275e-02 1.562275e-02 0.9999 -1.2505 0.4254)" class="st1" width="32.1" height="0.1"/>
		</g>
		<g>
			
				<rect x="83.3" y="40.8" transform="matrix(0.9894 -0.145 0.145 0.9894 -7.3689 12.6942)" class="st2" width="0.1" height="32.2"/>
		</g>
		<g>
			<path class="st3" d="M77.9,108.8"/>
			<line class="st4" x1="77.9" y1="108.8" x2="77.9" y2="108.7"/>
		</g>
		<g>
			<line class="st4" x1="77.6" y1="108.8" x2="125.1" y2="93.5"/>
			<polygon class="st6" points="77.6,108.8 77.6,108.7 125.1,93.4 125.1,93.5 			"/>
		</g>
		<g>
			<path class="st3" d="M126.1,93.4"/>
			<line class="st4" x1="126.1" y1="93.5" x2="126.1" y2="93.4"/>
		</g>
		<g>
			<line class="st4" x1="76.1" y1="108.6" x2="45.5" y2="81.1"/>
			
				<rect x="60.8" y="74.3" transform="matrix(0.6688 -0.7435 0.7435 0.6688 -50.401 76.6343)" class="st5" width="0.1" height="41.1"/>
		</g>
		<g>
			<line class="st4" x1="76.1" y1="108.9" x2="24.4" y2="91.9"/>
			
				<rect x="50.2" y="73.1" transform="matrix(0.3118 -0.9502 0.9502 0.3118 -60.8199 116.794)" class="st5" width="0.1" height="54.5"/>
		</g>
		<g>
			<circle class="st3" cx="44.2" cy="80" r="2"/>
			<path class="st6" d="M44.2,82.1c-1.1,0-2.1-0.9-2.1-2.1c0-1.1,0.9-2.1,2.1-2.1s2.1,0.9,2.1,2.1C46.4,81.2,45.4,82.1,44.2,82.1z
				 M44.2,78.1c-1.1,0-1.9,0.9-1.9,1.9s0.9,1.9,1.9,1.9s1.9-0.9,1.9-1.9S45.4,78.1,44.2,78.1z"/>
		</g>
		<g>
			<circle class="st3" cx="44.2" cy="80" r="1.2"/>
			<path class="st6" d="M44.2,81.3c-0.7,0-1.3-0.6-1.3-1.3c0-0.7,0.6-1.3,1.3-1.3s1.3,0.6,1.3,1.3S45,81.3,44.2,81.3z M44.2,78.9
				c-0.6,0-1.1,0.5-1.1,1.1s0.5,1.1,1.1,1.1s1.1-0.5,1.1-1.1C45.4,79.4,44.9,78.9,44.2,78.9z"/>
		</g>
		<g>
			<circle class="st6" cx="44.2" cy="80" r="0.7"/>
		</g>
		<g>
			<g>
				<circle class="st3" cx="44" cy="13.7" r="2.1"/>
				<path class="st6" d="M44,15.8c-1.2,0-2.2-1-2.2-2.2s1-2.2,2.2-2.2s2.2,1,2.2,2.2S45.2,15.8,44,15.8z M44,11.6c-1.1,0-2,0.9-2,2
					s0.9,2,2,2s2-0.9,2-2S45.2,11.6,44,11.6z"/>
			</g>
			<g>
				<circle class="st3" cx="44" cy="13.7" r="1.3"/>
				<path class="st6" d="M44,15c-0.7,0-1.3-0.6-1.3-1.3c0-0.7,0.6-1.3,1.3-1.3s1.4,0.5,1.4,1.3C45.5,14.5,44.9,15,44,15z M44,12.4
					c-0.7,0-1.2,0.5-1.2,1.2s0.5,1.2,1.2,1.2s1.2-0.5,1.2-1.2C45.2,12.9,44.8,12.4,44,12.4z"/>
			</g>
			<g>
				<circle class="st6" cx="44" cy="13.7" r="0.7"/>
			</g>
		</g>
		<g>
			<g>
				<circle class="st3" cx="122.6" cy="56.4" r="2.1"/>
				<path class="st6" d="M122.6,58.6c-1.2,0-2.2-1-2.2-2.2s1-2.2,2.2-2.2s2.2,1,2.2,2.2C124.9,57.6,123.9,58.6,122.6,58.6z
					 M122.6,54.4c-1.1,0-2,0.9-2,2s0.9,2,2,2c1.1,0,2-0.9,2-2C124.8,55.3,123.9,54.4,122.6,54.4z"/>
			</g>
			<g>
				<circle class="st3" cx="122.6" cy="56.4" r="1.3"/>
				<path class="st6" d="M122.6,57.8c-0.7,0-1.3-0.6-1.3-1.3s0.6-1.3,1.3-1.3c0.7,0,1.3,0.6,1.3,1.3
					C124.1,57.2,123.4,57.8,122.6,57.8z M122.6,55.2c-0.7,0-1.2,0.5-1.2,1.2s0.5,1.2,1.2,1.2s1.2-0.5,1.2-1.2
					C123.9,55.8,123.4,55.2,122.6,55.2z"/>
			</g>
			<g>
				<circle class="st6" cx="122.6" cy="56.4" r="0.7"/>
			</g>
		</g>
		<g>
			<g>
				<circle class="st3" cx="125.1" cy="92.7" r="1.5"/>
				<path class="st6" d="M125.1,94.3c-0.8,0-1.5-0.7-1.5-1.5s0.7-1.5,1.5-1.5s1.5,0.7,1.5,1.5S125.9,94.3,125.1,94.3z M125.1,91.3
					c-0.8,0-1.4,0.6-1.4,1.4s0.6,1.4,1.4,1.4s1.4-0.6,1.4-1.4S125.9,91.3,125.1,91.3z"/>
			</g>
			<g>
				<circle class="st3" cx="125.1" cy="92.7" r="0.9"/>
				<path class="st6" d="M125.1,93.7c-0.5,0-0.9-0.4-0.9-0.9s0.4-0.9,0.9-0.9s0.9,0.4,0.9,0.9C126.1,93.3,125.6,93.7,125.1,93.7z
					 M125.1,91.9c-0.4,0-0.8,0.4-0.8,0.8s0.4,0.8,0.8,0.8c0.4,0,0.8-0.4,0.8-0.8S125.6,91.9,125.1,91.9z"/>
			</g>
			<g>
				<circle class="st6" cx="125.1" cy="92.7" r="0.5"/>
			</g>
		</g>
		<g>
			<circle class="st3" cx="23.7" cy="91.4" r="1.5"/>
			<path class="st7" d="M23.7,93c-0.9,0-1.6-0.7-1.6-1.6s0.7-1.6,1.6-1.6c0.9,0,1.6,0.7,1.6,1.6C25.2,92.3,24.6,93,23.7,93z
				 M23.7,89.9c-0.8,0-1.4,0.6-1.4,1.4s0.6,1.4,1.4,1.4s1.4-0.6,1.4-1.4S24.5,89.9,23.7,89.9z"/>
		</g>
		<g>
			<circle class="st3" cx="23.7" cy="91.4" r="0.8"/>
			<path class="st7" d="M23.7,92.3c-0.5,0-0.9-0.4-0.9-0.9s0.4-0.9,0.9-0.9s0.9,0.4,0.9,0.9C24.6,91.9,24.2,92.3,23.7,92.3z
				 M23.7,90.6c-0.4,0-0.7,0.3-0.7,0.7c0,0.4,0.3,0.7,0.7,0.7c0.4,0,0.7-0.3,0.7-0.7C24.5,91,24.1,90.6,23.7,90.6z"/>
		</g>
		<g>
			<circle class="st7" cx="23.7" cy="91.4" r="0.5"/>
		</g>
		<g>
			<circle class="st3" cx="10.1" cy="80.4" r="1.5"/>
			<path class="st1" d="M10.1,82c-0.9,0-1.6-0.7-1.6-1.6s0.7-1.6,1.6-1.6c0.9,0,1.6,0.7,1.6,1.6C11.6,81.3,10.9,82,10.1,82z
				 M10.1,78.9c-0.8,0-1.4,0.6-1.4,1.4s0.6,1.4,1.4,1.4c0.8,0,1.4-0.5,1.4-1.3S10.9,78.9,10.1,78.9z"/>
		</g>
		<g>
			<circle class="st3" cx="10.1" cy="80.4" r="0.8"/>
			<path class="st1" d="M10.1,81.3c-0.5,0-0.9-0.4-0.9-0.9s0.4-0.9,0.9-0.9s0.9,0.4,0.9,0.9C11,80.9,10.6,81.3,10.1,81.3z
				 M10.1,79.6c-0.4,0-0.8,0.3-0.8,0.8c0,0.4,0.3,0.8,0.8,0.8s0.8-0.3,0.8-0.8C10.8,80,10.5,79.6,10.1,79.6z"/>
		</g>
		<g>
			<circle class="st1" cx="10.1" cy="80.4" r="0.5"/>
		</g>
		<g>
			<circle class="st3" cx="16.2" cy="44.1" r="2.1"/>
			<path class="st1" d="M16.2,46.2c-1.2,0-2.1-1-2.1-2.1c0-1.2,1-2.1,2.1-2.1c1.1,0,2.1,1,2.1,2.1S17.4,46.2,16.2,46.2z M16.2,42.1
				c-1.1,0-2,0.9-2,2s0.9,2,2,2c1.1,0,2-0.9,2-2S17.4,42.1,16.2,42.1z"/>
		</g>
		<g>
			<circle class="st3" cx="16.3" cy="44.1" r="1.1"/>
			<path class="st1" d="M16.2,45.3c-0.7,0-1.2-0.5-1.2-1.2s0.5-1.2,1.2-1.2c0.7,0,1.2,0.5,1.2,1.2C17.4,44.7,16.9,45.3,16.2,45.3z
				 M16.2,43c-0.6,0-1.1,0.5-1.1,1.1s0.5,1.1,1.1,1.1c0.6,0,1.1-0.5,1.1-1.1C17.2,43.5,16.8,43,16.2,43z"/>
		</g>
		<g>
			<circle class="st1" cx="16.2" cy="44.1" r="0.7"/>
		</g>
		<g>
			<circle class="st3" cx="81.1" cy="39.9" r="1.5"/>
			<path class="st1" d="M81.1,41.4c-0.9,0-1.6-0.7-1.6-1.6c0-0.9,0.7-1.6,1.6-1.6c0.9,0,1.6,0.7,1.6,1.6
				C82.6,40.7,81.9,41.4,81.1,41.4z M81.1,38.4c-0.8,0-1.4,0.6-1.4,1.4c0,0.8,0.6,1.4,1.4,1.4s1.4-0.6,1.4-1.4
				C82.6,39.1,81.9,38.4,81.1,38.4z"/>
		</g>
		<g>
			<circle class="st3" cx="81.1" cy="39.9" r="0.8"/>
			<path class="st1" d="M81.1,40.7c-0.5,0-0.9-0.4-0.9-0.9s0.4-0.9,0.9-0.9s0.9,0.4,0.9,0.9S81.6,40.7,81.1,40.7z M81.1,39.1
				c-0.4,0-0.8,0.3-0.8,0.8c0,0.4,0.3,0.8,0.8,0.8c0.4,0,0.8-0.3,0.8-0.8S81.4,39.1,81.1,39.1z"/>
		</g>
		<g>
			<circle class="st1" cx="81.1" cy="39.9" r="0.5"/>
		</g>
		<g>
			<circle class="st3" cx="101.2" cy="83.7" r="2"/>
			<path class="st8" d="M101.2,85.8c-1.2,0-2.1-0.9-2.1-2.1s0.9-2.1,2.1-2.1s2.1,0.9,2.1,2.1S102.4,85.8,101.2,85.8z M101.2,81.7
				c-1.1,0-2,0.9-2,2s0.9,2,2,2c1.1,0,2-0.9,2-2S102.4,81.7,101.2,81.7z"/>
		</g>
		<g>
			<circle class="st3" cx="101.2" cy="83.7" r="1.1"/>
			<path class="st8" d="M101.2,84.8c-0.6,0-1.2-0.5-1.2-1.2c0-0.6,0.5-1.2,1.2-1.2c0.6,0,1.2,0.5,1.2,1.2S101.9,84.8,101.2,84.8z
				 M101.2,82.6c-0.6,0-1.1,0.5-1.1,1.1s0.5,1.1,1.1,1.1c0.6,0,1.1-0.5,1.1-1.1S101.9,82.6,101.2,82.6z"/>
		</g>
		<g>
			<circle class="st8" cx="101.2" cy="83.7" r="0.7"/>
		</g>
		<g>
			<circle class="st3" cx="97.1" cy="29.5" r="1.3"/>
			<path class="st8" d="M97.1,30.9c-0.7,0-1.4-0.6-1.4-1.4c0-0.7,0.6-1.4,1.4-1.4c0.7,0,1.4,0.6,1.4,1.4
				C98.6,30.3,97.9,30.9,97.1,30.9z M97.1,28.3c-0.7,0-1.2,0.6-1.2,1.2c0,0.7,0.6,1.2,1.2,1.2c0.7,0,1.2-0.6,1.2-1.2
				C98.4,28.8,97.9,28.3,97.1,28.3z"/>
		</g>
		<g>
			<circle class="st3" cx="97.1" cy="29.5" r="0.7"/>
			<path class="st8" d="M97.1,30.3c-0.4,0-0.8-0.3-0.8-0.8c0-0.4,0.3-0.8,0.8-0.8c0.4,0,0.8,0.3,0.8,0.8
				C97.9,29.9,97.6,30.3,97.1,30.3z M97.1,28.9c-0.4,0-0.6,0.3-0.6,0.6c0,0.4,0.3,0.6,0.6,0.6c0.4,0,0.6-0.3,0.6-0.6
				C97.9,29.2,97.6,28.9,97.1,28.9z"/>
		</g>
		<g>
			<circle class="st8" cx="97.1" cy="29.5" r="0.4"/>
		</g>
		<g>
			<circle class="st3" cx="76.9" cy="109.1" r="1.5"/>
			<path class="st5" d="M76.9,110.7c-0.9,0-1.6-0.7-1.6-1.6s0.7-1.6,1.6-1.6c0.9,0,1.6,0.7,1.6,1.6S77.9,110.7,76.9,110.7z
				 M76.9,107.7c-0.8,0-1.4,0.6-1.4,1.4s0.6,1.4,1.4,1.4s1.4-0.6,1.4-1.4S77.8,107.7,76.9,107.7z"/>
		</g>
		<g>
			<circle class="st3" cx="76.9" cy="109.1" r="0.8"/>
			<path class="st5" d="M76.9,110c-0.5,0-0.9-0.4-0.9-0.9s0.4-0.9,0.9-0.9s0.9,0.4,0.9,0.9S77.4,110,76.9,110z M76.9,108.4
				c-0.4,0-0.8,0.3-0.8,0.8c0,0.4,0.3,0.8,0.8,0.8s0.8-0.3,0.8-0.8C77.8,108.7,77.4,108.4,76.9,108.4z"/>
		</g>
		<g>
			<circle class="st5" cx="76.9" cy="109.1" r="0.5"/>
		</g>
		<g>
			<circle class="st3" cx="85.8" cy="73.9" r="1.5"/>
			<path class="st5" d="M85.8,75.4c-0.9,0-1.6-0.7-1.6-1.6s0.7-1.6,1.6-1.6c0.9,0,1.6,0.7,1.6,1.6S86.6,75.4,85.8,75.4z M85.8,72.4
				c-0.8,0-1.4,0.6-1.4,1.4c0,0.8,0.6,1.4,1.4,1.4s1.4-0.6,1.4-1.4C87.1,73.1,86.6,72.4,85.8,72.4z"/>
		</g>
		<g>
			<circle class="st3" cx="85.8" cy="73.9" r="0.8"/>
			<path class="st5" d="M85.8,74.7c-0.5,0-0.9-0.4-0.9-0.9s0.4-0.9,0.9-0.9s0.9,0.4,0.9,0.9C86.6,74.4,86.2,74.7,85.8,74.7z
				 M85.8,73.1c-0.4,0-0.8,0.3-0.8,0.8c0,0.4,0.3,0.8,0.8,0.8s0.8-0.3,0.8-0.8S86.1,73.1,85.8,73.1z"/>
		</g>
		<g>
			<circle class="st5" cx="85.8" cy="73.9" r="0.5"/>
		</g>
		<g>
			<polygon class="st6" points="10.3,80.7 10.2,80.7 16.1,44.1 16.2,44.1 			"/>
		</g>
	</g>
	<g>
		<g>
			<g>
				<circle class="st3" cx="64.9" cy="67.5" r="16.1"/>
				
					<linearGradient id="SVGID_1_" gradientUnits="userSpaceOnUse" x1="64.85" y1="85.7639" x2="64.85" y2="53.5998" gradientTransform="matrix(1 0 0 -1 0 137.2)">
					<stop  offset="0" style="stop-color:#16A3FE"/>
					<stop  offset="1" style="stop-color:#41F9A5"/>
				</linearGradient>
				<path class="st9" d="M64.9,83.6c8.9,0,16.1-7.2,16.1-16.1s-7.2-16.1-16.1-16.1c-8.9,0-16.1,7.2-16.1,16.1S56,83.6,64.9,83.6z
					 M64.9,53.4c7.8,0,14.1,6.3,14.1,14.1s-6.3,14.1-14.1,14.1c-7.8,0-14.1-6.3-14.1-14.1S57.2,53.4,64.9,53.4z"/>
			</g>
			
				<linearGradient id="SVGID_2_" gradientUnits="userSpaceOnUse" x1="65.35" y1="79.7331" x2="65.35" y2="59.6331" gradientTransform="matrix(1 0 0 -1 0 137.2)">
				<stop  offset="0" style="stop-color:#16A3FE"/>
				<stop  offset="1" style="stop-color:#41F9A5"/>
			</linearGradient>
			<path class="st10" d="M59.9,75.6h1v1c0,0.6,0.5,1,1,1c0.6,0,1-0.5,1-1v-1h2v1c0,0.6,0.5,1,1,1c0.6,0,1-0.5,1-1v-1h0.5
				c2.5,0,4.5-2,4.5-4.5c0-1.7-0.9-3.1-2.3-3.9c0.8-0.8,1.3-1.9,1.3-3.1c0-2.3-1.8-4.2-4-4.5v-1.1c0-0.6-0.5-1-1-1c-0.6,0-1,0.5-1,1
				v1h-2v-1c0-0.6-0.5-1-1-1c-0.6,0-1,0.5-1,1v1h-1c-0.6,0-1,0.5-1,1v14.1C58.9,75.1,59.2,75.6,59.9,75.6z M67.4,73.5h-6.5v-5h5.5h1
				c1.4,0,2.5,1.1,2.5,2.5S68.8,73.5,67.4,73.5z M60.9,61.5h5.5c1.4,0,2.5,1.1,2.5,2.5s-1.1,2.5-2.5,2.5h-5.5V61.5z"/>
		</g>
		<ellipse class="st11" cx="64.9" cy="67.5" rx="23.5" ry="52.9"/>
		
			<ellipse transform="matrix(0.8115 -0.5843 0.5843 0.8115 -27.2312 50.6141)" class="st11" cx="64.8" cy="67.5" rx="52.9" ry="23.5"/>
		
			<ellipse transform="matrix(0.4143 -0.9102 0.9102 0.4143 -23.4808 98.5839)" class="st11" cx="64.9" cy="67.5" rx="23.5" ry="52.9"/>
		<circle class="st12" cx="65.2" cy="15.6" r="5"/>
		<circle class="st12" cx="65.2" cy="119.4" r="5"/>
		<circle class="st12" cx="112.1" cy="90.3" r="5"/>
		<circle class="st12" cx="17.5" cy="45.9" r="5"/>
		<circle class="st12" cx="22.5" cy="98.1" r="5"/>
		<circle class="st12" cx="107.6" cy="36.8" r="5"/>
	</g>
</g>
</svg>
