<?xml version="1.0" encoding="utf-8"?>
<!-- Generator: Adobe Illustrator 22.1.0, SVG Export Plug-In . SVG Version: 6.00 Build 0)  -->
<!DOCTYPE svg PUBLIC "-//W3C//DTD SVG 1.1//EN" "http://www.w3.org/Graphics/SVG/1.1/DTD/svg11.dtd">
<svg version="1.1" id="Layer_1" xmlns="http://www.w3.org/2000/svg" xmlns:xlink="http://www.w3.org/1999/xlink" x="0px" y="0px"
	 viewBox="0 0 135 135" style="enable-background:new 0 0 135 135;" xml:space="preserve">
<style type="text/css">
	.st0{opacity:0.85;}
	.st1{fill:none;stroke:#FDA63E;stroke-width:0.75;stroke-linecap:round;stroke-miterlimit:10;}
	.st2{fill:none;stroke:#40F8A2;stroke-width:0.75;stroke-linecap:round;stroke-miterlimit:10;}
	.st3{fill:none;stroke:#7A5CFD;stroke-width:0.75;stroke-linecap:round;stroke-miterlimit:10;}
	.st4{fill:none;stroke:#45BBF2;stroke-width:0.75;stroke-linecap:round;stroke-miterlimit:10;}
	.st5{fill:none;stroke:#304FFC;stroke-width:0.75;stroke-linecap:round;stroke-miterlimit:10;}
	.st6{fill:#16A3FE;}
	.st7{fill:#FFFFFF;}
	.st8{fill:#00FFFE;}
	.st9{fill:none;}
	.st10{fill:none;stroke:url(#SVGID_1_);stroke-width:0.5;stroke-linecap:round;stroke-miterlimit:10;stroke-dasharray:2,3;}
	.st11{fill:none;stroke:url(#SVGID_2_);stroke-width:0.5;stroke-linecap:round;stroke-miterlimit:10;stroke-dasharray:2,3;}
	.st12{fill:none;stroke:url(#SVGID_3_);stroke-width:0.5;stroke-linecap:round;stroke-miterlimit:10;stroke-dasharray:2,3;}
	.st13{opacity:0.7;fill:#16A3FE;}
	.st14{opacity:0.5;fill:#40F9A5;}
	.st15{opacity:0.5;}
	.st16{fill:none;stroke:#0096FF;stroke-width:0.35;stroke-linecap:round;stroke-linejoin:round;stroke-miterlimit:10;}
	.st17{opacity:0.7;fill:none;stroke:#0096FF;stroke-width:0.35;stroke-linecap:round;stroke-linejoin:round;stroke-miterlimit:10;}
	.st18{fill:none;stroke:url(#SVGID_4_);stroke-width:0.5;stroke-linecap:round;stroke-miterlimit:10;}
	
		.st19{fill:none;stroke:url(#SVGID_5_);stroke-width:0.5;stroke-linecap:round;stroke-miterlimit:10;stroke-dasharray:1.8247,2.7371;}
	.st20{fill:none;stroke:url(#SVGID_6_);stroke-width:0.5;stroke-linecap:round;stroke-miterlimit:10;}
	.st21{opacity:0.4;fill:#16A3FE;}
	.st22{opacity:0.7;fill:none;stroke:#0096FF;stroke-width:0.25;stroke-linecap:round;stroke-linejoin:round;stroke-miterlimit:10;}
	.st23{opacity:0.4;fill:#DAE1FF;}
</style>
<g>
	<g class="st0">
		<line class="st1" x1="93" y1="86.5" x2="130.1" y2="95.4"/>
		<line class="st2" x1="88.4" y1="88.5" x2="110.6" y2="96.6"/>
		<line class="st3" x1="91.2" y1="94.3" x2="100.6" y2="99.1"/>
		<line class="st3" x1="106.8" y1="102.3" x2="115.8" y2="107"/>
		<line class="st4" x1="88.4" y1="86.5" x2="133.8" y2="99.9"/>
		<line class="st4" x1="93" y1="92.7" x2="101.7" y2="96"/>
		<line class="st1" x1="98.2" y1="96" x2="103.7" y2="98.4"/>
		<line class="st1" x1="110" y1="101.1" x2="122.9" y2="107"/>
		<line class="st2" x1="112.6" y1="99.9" x2="128.1" y2="107"/>
		<line class="st4" x1="93.5" y1="98.4" x2="104.3" y2="104.7"/>
		<line class="st3" x1="92" y1="99.1" x2="117.7" y2="116.4"/>
		<line class="st1" x1="94.4" y1="104.7" x2="106.3" y2="114"/>
		<line class="st4" x1="81.1" y1="103.8" x2="87.7" y2="113.6"/>
		<line class="st4" x1="76.4" y1="101.4" x2="85.7" y2="117.9"/>
		<line class="st5" x1="58.6" y1="99.6" x2="53.9" y2="112.5"/>
		<line class="st3" x1="57.9" y1="93.4" x2="35.5" y2="124.5"/>
		<line class="st1" x1="57.9" y1="95.9" x2="46.7" y2="117.4"/>
		<line class="st4" x1="51.9" y1="95" x2="43.6" y2="105.4"/>
		<line class="st4" x1="39.4" y1="110.2" x2="27.4" y2="125.1"/>
		<line class="st1" x1="42.7" y1="90.1" x2="36.9" y2="92.8"/>
		<line class="st5" x1="30.2" y1="94.5" x2="5" y2="105.5"/>
		<line class="st1" x1="32.8" y1="96.1" x2="1.2" y2="110.8"/>
		<line class="st4" x1="43.8" y1="91.4" x2="38.2" y2="94.5"/>
		<line class="st4" x1="35" y1="96.4" x2="11.5" y2="108.6"/>
		<line class="st1" x1="30.2" y1="92.9" x2="23.2" y2="95.6"/>
		<line class="st1" x1="18.3" y1="96.9" x2="2.4" y2="103.6"/>
		<line class="st4" x1="35.8" y1="89.4" x2="22.5" y2="93.4"/>
		<line class="st4" x1="18.3" y1="94.5" x2="2.4" y2="100"/>
		<line class="st3" x1="40.5" y1="83.3" x2="10.3" y2="88.7"/>
		<line class="st4" x1="29.7" y1="82.2" x2="2.4" y2="85.5"/>
		<line class="st1" x1="35.9" y1="25" x2="45.1" y2="43.5"/>
		<line class="st3" x1="45.8" y1="44.3" x2="54.7" y2="62.2"/>
		<line class="st5" x1="37.7" y1="44.3" x2="49.8" y2="61.4"/>
		<line class="st4" x1="45.1" y1="34.3" x2="57.4" y2="63.2"/>
		<line class="st4" x1="69.8" y1="34.3" x2="68.2" y2="51.7"/>
		<line class="st1" x1="78.6" y1="15.2" x2="68.2" y2="63.2"/>
		<line class="st2" x1="85.3" y1="9.9" x2="78.6" y2="30.8"/>
		<line class="st3" x1="78.1" y1="34.3" x2="69" y2="63.5"/>
		<line class="st5" x1="89.3" y1="16.9" x2="78.1" y2="44.7"/>
		<line class="st4" x1="127.8" y1="68.9" x2="89.3" y2="76.2"/>
		<line class="st4" x1="132.7" y1="73" x2="112.7" y2="75.4"/>
		<line class="st4" x1="126.4" y1="76.7" x2="102.4" y2="78.1"/>
	</g>
	<g>
		<g>
			<g>
				<path class="st6" d="M106.5,95.2H82.2c-0.3,0-0.6,0.2-0.6,0.6v16.8c0,0.3,0.3,0.6,0.6,0.6h24.4c0.3,0,0.5-0.3,0.5-0.6V95.7
					C107.1,95.4,106.9,95.2,106.5,95.2z"/>
			</g>
			<path class="st7" d="M105.6,111.1c0,0.4-0.1,0.5-0.4,0.5H83.6c-0.3,0-0.8-0.1-0.8-0.5v-14c0-0.4,0.5-0.7,0.8-0.7h21.7
				c0.3,0,0.4,0.3,0.4,0.7V111.1z"/>
			<g>
				<path class="st6" d="M109.3,115c0,0.1-0.1,0.3-0.3,0.3H79.5c-0.1,0-0.3-0.1-0.3-0.3v-1c0-0.1,0.1-0.3,0.3-0.3H109
					c0.1,0,0.3,0.1,0.3,0.3V115z"/>
			</g>
		</g>
		<g>
			<g>
				<path class="st6" d="M29.4,30.5l0,14.3c0,0.9,0.7,1.6,1.6,1.6l20.8,0c0.9,0,1.6-0.7,1.6-1.6l0-14.3c0-0.9-0.7-1.6-1.6-1.6
					l-20.8,0C30.1,28.8,29.4,29.6,29.4,30.5z"/>
			</g>
			<g>
				<path class="st8" d="M52.8,37.6c0,0.5-0.4,1-1,1c-0.5,0-1-0.4-1-1c0-0.5,0.4-1,1-1C52.4,36.7,52.8,37.1,52.8,37.6z"/>
			</g>
			<rect x="31.3" y="30.5" class="st7" width="18.7" height="14.3"/>
		</g>
		<rect x="118.5" y="76.3" class="st9" width="1.1" height="0.9"/>
		<rect x="116.7" y="76.3" class="st9" width="1.1" height="0.9"/>
		<linearGradient id="SVGID_1_" gradientUnits="userSpaceOnUse" x1="70.4257" y1="98.9375" x2="81.7384" y2="98.9375">
			<stop  offset="0" style="stop-color:#304FFC"/>
			<stop  offset="1" style="stop-color:#40F8A2"/>
		</linearGradient>
		<path class="st10" d="M81.5,104l-7.6,0c0,0-3.2,0.1-3.2-3.1v-7"/>
		<g>
			<g>
				<path class="st6" d="M94.9,51.8H45.4c-0.7,0-1.4,0.4-1.4,1.1v34.2c0,0.7,0.7,1.2,1.4,1.2h18.5c0,0,0,3.2,0,3.2h-2.5
					c-0.6,0-1.1,0.5-1.1,1.1c0,0.6,0.5,1.1,1.1,1.1h18.2c0.6,0,1.1-0.5,1.1-1.1c0-0.6-0.5-1.1-1.1-1.1h-2.6c0,0,0-3.2,0-3.2h18
					c0.7,0,1.3-0.5,1.3-1.2V52.9C96.2,52.2,95.6,51.8,94.9,51.8z"/>
			</g>
			<path class="st7" d="M95,83.4c0,0.8-0.6,1.4-1.4,1.4H46.5c-0.7,0-1.4-0.6-1.4-1.4V54.5c0-0.8,0.6-1.4,1.4-1.4h47.2
				c0.7,0,1.4,0.6,1.4,1.4V83.4z"/>
		</g>
		<g>
			<g>
				<path class="st6" d="M113.3,33.9H104c-0.9,0-1.6,0.7-1.6,1.6v18.8c0,0.9,0.7,1.6,1.6,1.6h9.3c0.9,0,1.6-0.7,1.6-1.6V35.5
					C114.9,34.6,114.2,33.9,113.3,33.9z"/>
			</g>
			<rect x="103.6" y="36.6" class="st7" width="10.1" height="15.1"/>
			<g>
				<polygon class="st8" points="110.8,35.5 106.5,35.5 106.5,35.1 110.8,35.1 110.8,35.5 				"/>
			</g>
			<g>
				<path class="st8" d="M112.6,35.3c0,0.2-0.2,0.4-0.4,0.4c-0.2,0-0.4-0.2-0.4-0.4c0-0.2,0.2-0.4,0.4-0.4
					C112.4,34.9,112.6,35.1,112.6,35.3z"/>
			</g>
			<g>
				<rect x="106.7" y="53" class="st8" width="3.9" height="1.2"/>
			</g>
		</g>
		<linearGradient id="SVGID_2_" gradientUnits="userSpaceOnUse" x1="53.4799" y1="44.7616" x2="67.1062" y2="44.7616">
			<stop  offset="0" style="stop-color:#304FFC"/>
			<stop  offset="1" style="stop-color:#40F8A2"/>
		</linearGradient>
		<path class="st11" d="M53.7,37.6h8.4c0,0,4.7-0.2,4.7,4.5v9.8"/>
		
			<linearGradient id="SVGID_3_" gradientUnits="userSpaceOnUse" x1="736.1057" y1="260.5219" x2="750.5673" y2="260.5219" gradientTransform="matrix(0 1 -1 0 363.4693 -679.8734)">
			<stop  offset="0" style="stop-color:#304FFC"/>
			<stop  offset="1" style="stop-color:#40F8A2"/>
		</linearGradient>
		<path class="st12" d="M108.6,56.5v9.2c0,0,0.2,4.7-4.4,4.7h-6.8"/>
		<rect x="49.9" y="58.5" class="st13" width="40.7" height="3.9"/>
		<rect x="85.5" y="99.8" class="st13" width="19.2" height="2.2"/>
		<rect x="85.5" y="102.6" class="st14" width="19.2" height="1.1"/>
		<rect x="104.9" y="38.1" class="st13" width="7.4" height="6"/>
		<rect x="104.8" y="44.7" class="st13" width="7.4" height="2"/>
		<rect x="104.9" y="47.4" class="st14" width="7.4" height="2.9"/>
		<rect x="60.2" y="78.6" class="st13" width="30.4" height="2.1"/>
		<rect x="32.3" y="41.3" class="st14" width="16.5" height="1.5"/>
		<rect x="49.9" y="78.6" class="st13" width="8.8" height="2.1"/>
		<rect x="49.9" y="63.8" class="st14" width="9" height="4.4"/>
		<rect x="60.5" y="63.8" class="st14" width="9" height="4.4"/>
		<rect x="71" y="63.8" class="st14" width="9" height="4.4"/>
		<rect x="81.6" y="63.8" class="st14" width="9" height="4.4"/>
		<rect x="32.3" y="32" class="st13" width="16.7" height="2.4"/>
		<g class="st15">
			<line class="st16" x1="50.1" y1="71.3" x2="57" y2="71.3"/>
			<line class="st16" x1="50.1" y1="72.4" x2="56.2" y2="72.4"/>
			<line class="st16" x1="50.1" y1="73.4" x2="58.3" y2="73.4"/>
			<line class="st16" x1="50.1" y1="74.4" x2="57.9" y2="74.4"/>
			<line class="st16" x1="50.1" y1="75.5" x2="59.1" y2="75.5"/>
			<line class="st16" x1="71.3" y1="71.3" x2="78.2" y2="71.3"/>
			<line class="st16" x1="71.3" y1="72.4" x2="79.5" y2="72.4"/>
			<line class="st16" x1="71.3" y1="73.4" x2="80.3" y2="73.4"/>
			<line class="st16" x1="71.3" y1="74.4" x2="79.1" y2="74.4"/>
			<line class="st16" x1="71.3" y1="75.5" x2="80.3" y2="75.5"/>
			<line class="st16" x1="60.6" y1="71.3" x2="69.6" y2="71.3"/>
			<line class="st16" x1="60.6" y1="72.4" x2="68.6" y2="72.4"/>
			<line class="st16" x1="60.6" y1="73.4" x2="66.7" y2="73.4"/>
			<line class="st16" x1="60.6" y1="74.4" x2="69.6" y2="74.4"/>
			<line class="st16" x1="60.6" y1="75.5" x2="69.6" y2="75.5"/>
		</g>
		<line class="st17" x1="85.6" y1="104.7" x2="91.1" y2="104.7"/>
		<line class="st17" x1="92" y1="104.7" x2="97.5" y2="104.7"/>
		<line class="st17" x1="98.5" y1="104.7" x2="104.6" y2="104.7"/>
		<line class="st17" x1="85.6" y1="105.6" x2="91.1" y2="105.6"/>
		<line class="st17" x1="92" y1="105.6" x2="97.5" y2="105.6"/>
		<line class="st17" x1="98.5" y1="105.6" x2="104.6" y2="105.6"/>
		<line class="st17" x1="85.6" y1="106.5" x2="91.1" y2="106.5"/>
		<line class="st17" x1="92" y1="106.5" x2="97.5" y2="106.5"/>
		<line class="st17" x1="98.5" y1="106.5" x2="104.6" y2="106.5"/>
		<line class="st17" x1="85.6" y1="107.5" x2="91.1" y2="107.5"/>
		<line class="st17" x1="92" y1="107.4" x2="97.5" y2="107.4"/>
		<line class="st17" x1="98.5" y1="107.4" x2="104.6" y2="107.4"/>
		<line class="st17" x1="85.7" y1="108.4" x2="91.1" y2="108.4"/>
		<line class="st17" x1="92.1" y1="108.4" x2="97.5" y2="108.4"/>
		<line class="st17" x1="98.5" y1="108.4" x2="104.6" y2="108.4"/>
		<line class="st17" x1="85.6" y1="109.3" x2="91.1" y2="109.3"/>
		<line class="st17" x1="92" y1="109.3" x2="97.5" y2="109.3"/>
		<line class="st17" x1="98.5" y1="109.3" x2="104.6" y2="109.3"/>
		<line class="st16" x1="32.3" y1="35.5" x2="37.5" y2="35.5"/>
		<line class="st16" x1="32.3" y1="36.3" x2="37.5" y2="36.3"/>
		<line class="st16" x1="32.3" y1="37" x2="37.5" y2="37"/>
		<line class="st16" x1="32.3" y1="37.8" x2="37.5" y2="37.8"/>
		<line class="st16" x1="32.3" y1="38.6" x2="37.5" y2="38.6"/>
		<line class="st16" x1="32.3" y1="39.4" x2="37.5" y2="39.4"/>
		<line class="st16" x1="32.3" y1="40.2" x2="37.5" y2="40.2"/>
		<line class="st16" x1="38.3" y1="35.5" x2="43" y2="35.5"/>
		<line class="st16" x1="38.3" y1="36.3" x2="43" y2="36.3"/>
		<line class="st16" x1="38.3" y1="37" x2="43" y2="37"/>
		<line class="st16" x1="38.3" y1="37.8" x2="43" y2="37.8"/>
		<line class="st16" x1="38.3" y1="38.6" x2="43" y2="38.6"/>
		<line class="st16" x1="38.3" y1="39.4" x2="43" y2="39.4"/>
		<line class="st16" x1="38.3" y1="40.2" x2="43" y2="40.2"/>
		<line class="st16" x1="43.8" y1="35.5" x2="48.8" y2="35.5"/>
		<line class="st16" x1="43.8" y1="36.3" x2="48.8" y2="36.3"/>
		<line class="st16" x1="43.8" y1="37" x2="48.8" y2="37"/>
		<line class="st16" x1="43.8" y1="37.8" x2="48.8" y2="37.8"/>
		<line class="st16" x1="43.8" y1="38.6" x2="48.8" y2="38.6"/>
		<line class="st16" x1="43.8" y1="39.4" x2="48.8" y2="39.4"/>
		<line class="st16" x1="43.8" y1="40.2" x2="48.8" y2="40.2"/>
		<g>
			<g>
				<g>
					<path class="st6" d="M36.1,83.3l-11.3,0c-0.7,0-1.3,0.6-1.3,1.3l0,16.4c0,0.7,0.6,1.3,1.3,1.3l11.3,0c0.7,0,1.3-0.6,1.3-1.3
						l0-16.4C37.4,83.8,36.8,83.3,36.1,83.3z"/>
				</g>
				<g>
					<path class="st8" d="M30.4,101.7c-0.4,0-0.8-0.3-0.8-0.8c0-0.4,0.3-0.8,0.8-0.8c0.4,0,0.8,0.3,0.8,0.8
						C31.2,101.4,30.8,101.7,30.4,101.7z"/>
				</g>
				<rect x="24.8" y="84.8" class="st7" width="11.3" height="14.7"/>
			</g>
			<g>
				<g>
					<linearGradient id="SVGID_4_" gradientUnits="userSpaceOnUse" x1="30.1748" y1="67.4845" x2="43.9442" y2="67.4845">
						<stop  offset="0" style="stop-color:#304FFC"/>
						<stop  offset="1" style="stop-color:#40F8A2"/>
					</linearGradient>
					<line class="st18" x1="43.7" y1="67.5" x2="42.7" y2="67.5"/>
					<linearGradient id="SVGID_5_" gradientUnits="userSpaceOnUse" x1="30.1748" y1="74.0235" x2="43.9443" y2="74.0235">
						<stop  offset="0" style="stop-color:#304FFC"/>
						<stop  offset="1" style="stop-color:#40F8A2"/>
					</linearGradient>
					<path class="st19" d="M40,67.5h-6.6c-3,0-2.9,2.9-2.9,2.9v10.2"/>
					<linearGradient id="SVGID_6_" gradientUnits="userSpaceOnUse" x1="30.1748" y1="82.4309" x2="43.9442" y2="82.4309">
						<stop  offset="0" style="stop-color:#304FFC"/>
						<stop  offset="1" style="stop-color:#40F8A2"/>
					</linearGradient>
					<line class="st20" x1="30.4" y1="81.9" x2="30.4" y2="82.9"/>
				</g>
			</g>
			<rect x="30.5" y="92.4" class="st13" width="4.8" height="3.7"/>
			<rect x="25.5" y="86.1" class="st21" width="9.8" height="1.3"/>
			<rect x="25.6" y="96.8" class="st14" width="9.8" height="0.5"/>
			<rect x="25.6" y="97.7" class="st14" width="9.8" height="0.5"/>
			<rect x="25.5" y="87.9" class="st14" width="4.7" height="3.9"/>
			<line class="st22" x1="30.7" y1="88" x2="35.2" y2="88"/>
			<line class="st22" x1="30.7" y1="88.8" x2="35.2" y2="88.8"/>
			<line class="st22" x1="30.7" y1="89.5" x2="35.2" y2="89.5"/>
			<line class="st22" x1="30.7" y1="90.2" x2="35.2" y2="90.2"/>
			<line class="st22" x1="30.7" y1="90.9" x2="35.2" y2="90.9"/>
			<line class="st22" x1="30.7" y1="91.7" x2="35.2" y2="91.7"/>
			<line class="st22" x1="25.6" y1="92.4" x2="30.1" y2="92.4"/>
			<line class="st22" x1="25.6" y1="93.1" x2="30.1" y2="93.1"/>
			<line class="st22" x1="25.6" y1="93.9" x2="30.1" y2="93.9"/>
			<line class="st22" x1="25.6" y1="94.6" x2="30.1" y2="94.6"/>
			<line class="st22" x1="25.6" y1="95.3" x2="30.1" y2="95.3"/>
			<line class="st22" x1="25.6" y1="96" x2="30.1" y2="96"/>
		</g>
		<g>
			<circle class="st8" cx="70" cy="86.7" r="0.8"/>
		</g>
		<path class="st23" d="M66.5,51.8l29.8,33l0-31.7c0-0.7-0.6-1.3-1.3-1.3H66.5z"/>
		<path class="st23" d="M91.6,95.7l16,17.7l0-17.1c0-0.3-0.2-0.5-0.5-0.5H91.6z"/>
	</g>
</g>
</svg>
