<?xml version="1.0" encoding="utf-8"?>
<!-- Generator: Adobe Illustrator 22.1.0, SVG Export Plug-In . SVG Version: 6.00 Build 0)  -->
<!DOCTYPE svg PUBLIC "-//W3C//DTD SVG 1.1//EN" "http://www.w3.org/Graphics/SVG/1.1/DTD/svg11.dtd">
<svg version="1.1" id="Layer_1" xmlns="http://www.w3.org/2000/svg" xmlns:xlink="http://www.w3.org/1999/xlink" x="0px" y="0px"
	 viewBox="0 0 135 135" style="enable-background:new 0 0 135 135;" xml:space="preserve">
<style type="text/css">
	.st0{fill:none;stroke:#FDA63E;stroke-width:0.75;stroke-linecap:round;stroke-miterlimit:10;}
	.st1{fill:none;stroke:#00FFFF;stroke-width:0.75;stroke-linecap:round;stroke-miterlimit:10;}
	.st2{fill:none;stroke:#40F8A2;stroke-width:0.75;stroke-linecap:round;stroke-miterlimit:10;}
	.st3{fill:#FFFFFF;stroke:#16A4FD;stroke-linecap:round;stroke-miterlimit:10;}
	.st4{fill:#E7FFFF;stroke:#16A4FD;stroke-linecap:round;stroke-miterlimit:10;}
	.st5{opacity:0.7;}
	.st6{fill:none;stroke:#00FFFF;stroke-width:2;stroke-miterlimit:10;}
	.st7{fill:#40F9A5;}
	.st8{opacity:0.7;fill:none;stroke:#00FFFF;stroke-width:0.75;stroke-miterlimit:10;enable-background:new    ;}
	.st9{fill:#FFFFFF;}
	.st10{fill:url(#SVGID_1_);}
	.st11{fill:url(#SVGID_2_);}
	.st12{fill:url(#SVGID_3_);}
	.st13{fill:url(#SVGID_4_);}
	.st14{fill:url(#SVGID_5_);}
	.st15{fill:url(#SVGID_6_);}
	.st16{fill:url(#SVGID_7_);}
	.st17{fill:url(#SVGID_8_);}
</style>
<g>
	<line class="st0" x1="66.2" y1="121.9" x2="0.4" y2="76.2"/>
	<line class="st1" x1="53.4" y1="108.2" x2="15.9" y2="82.2"/>
	<line class="st1" x1="107.8" y1="47.2" x2="39.7" y2="7.7"/>
	<line class="st0" x1="106.8" y1="35.9" x2="67.4" y2="13"/>
	<line class="st2" x1="95.6" y1="34.4" x2="56.2" y2="11.5"/>
	<g>
		<g>
			<polygon class="st3" points="28.1,55.5 28.1,114.5 80.2,114.5 80.2,46.5 37.3,46.5 			"/>
			<polyline class="st4" points="38,46.5 38,55.9 28.5,55.9 			"/>
		</g>
		<g class="st5">
			<line class="st6" x1="39.8" y1="67.2" x2="67.6" y2="67.2"/>
			<line class="st6" x1="39.8" y1="72.2" x2="67.6" y2="72.2"/>
			<line class="st6" x1="39.8" y1="77.2" x2="67.6" y2="77.2"/>
			<line class="st6" x1="39.8" y1="82.2" x2="67.6" y2="82.2"/>
			<line class="st6" x1="39.8" y1="87.3" x2="67.6" y2="87.3"/>
		</g>
	</g>
	<g>
		<g>
			<polygon class="st3" points="44,46.4 44,105.3 96.2,105.3 96.2,37.4 53.3,37.4 			"/>
			<polyline class="st4" points="54,37.4 54,46.8 44.4,46.8 			"/>
		</g>
		<g class="st5">
			<line class="st6" x1="55.8" y1="58.1" x2="84.4" y2="58.1"/>
			<line class="st6" x1="55.8" y1="63.1" x2="84.4" y2="63.1"/>
			<line class="st6" x1="55.8" y1="68.1" x2="84.4" y2="68.1"/>
			<line class="st6" x1="55.8" y1="73.2" x2="84.4" y2="73.2"/>
			<line class="st6" x1="55.8" y1="78.2" x2="84.4" y2="78.2"/>
		</g>
	</g>
	<path class="st3" d="M60.7,33.1v55.7c0,0-0.8,10,12.5,9.8s40.3,0,44.6,0s8.8-4.8,8.5-10c-6.3,0-19.2,0-19.2,0V33.1
		c0,0,0.9-9.2-9.4-9.2H51.4C51.4,23.8,60.7,25.7,60.7,33.1z"/>
	<path class="st4" d="M116.9,98.7H73.3v-0.1c3.7-1.1,6.2-4.9,6.2-10h46.9v0.5C126.3,94.4,122.1,98.7,116.9,98.7z"/>
	<path class="st4" d="M50.5,23.8h0.3c5.4,0,9.9,4.4,9.7,9.7V34H40.3l0,0C40.3,28.4,44.9,23.8,50.5,23.8z"/>
	<g class="st5">
		<line class="st6" x1="78.3" y1="51.1" x2="99.8" y2="51.1"/>
	</g>
	<polygon class="st7" points="75.4,48.8 72.7,51.5 71.5,50.3 70.6,51.2 72.7,53.4 76.3,49.8 	"/>
	<g class="st5">
		<line class="st6" x1="78.3" y1="57.8" x2="99.8" y2="57.8"/>
	</g>
	<polygon class="st7" points="75.4,55.5 72.7,58.2 71.5,57.1 70.6,58 72.7,60.1 76.3,56.5 	"/>
	<g class="st5">
		<line class="st6" x1="78.3" y1="63.5" x2="99.8" y2="63.5"/>
	</g>
	<polygon class="st7" points="75.4,61.2 72.7,63.9 71.5,62.8 70.6,63.8 72.7,65.8 76.3,62.2 	"/>
	<g class="st5">
		<line class="st6" x1="78.3" y1="70.3" x2="99.8" y2="70.3"/>
	</g>
	<polygon class="st7" points="75.4,68.1 72.7,70.8 71.5,69.6 70.6,70.6 72.7,72.7 76.3,68.9 	"/>
	<path class="st8" d="M56.5,90.7c0,0-2.1,9.8,11.1,11.4"/>
	<path class="st8" d="M111,33.1c0,0,1.4-13.7-13.9-13.7"/>
	<g>
		<g>
			<ellipse class="st9" cx="62.2" cy="92.5" rx="7.9" ry="7.9"/>
			
				<linearGradient id="SVGID_1_" gradientUnits="userSpaceOnUse" x1="62.2255" y1="36.3192" x2="62.2255" y2="52.0715" gradientTransform="matrix(1 0 0 -1 0 136.7)">
				<stop  offset="0" style="stop-color:#16A3FE"/>
				<stop  offset="1" style="stop-color:#41F9A5"/>
			</linearGradient>
			<path class="st10" d="M62.2,100.3c4.3,0,7.9-3.5,7.9-7.9s-3.5-7.9-7.9-7.9s-7.9,3.5-7.9,7.9S57.9,100.3,62.2,100.3z M62.2,85.7
				c3.8,0,6.9,3.1,6.9,6.9s-3.1,6.8-6.9,6.8c-3.8,0-6.9-3.1-6.9-6.9S58.4,85.7,62.2,85.7z"/>
		</g>
		
			<linearGradient id="SVGID_2_" gradientUnits="userSpaceOnUse" x1="62.4245" y1="39.2727" x2="62.4245" y2="49.1179" gradientTransform="matrix(1 0 0 -1 0 136.7)">
			<stop  offset="0" style="stop-color:#16A3FE"/>
			<stop  offset="1" style="stop-color:#41F9A5"/>
		</linearGradient>
		<path class="st11" d="M59.7,96.4h0.5v0.5c0,0.3,0.2,0.5,0.5,0.5c0.3,0,0.5-0.2,0.5-0.5v-0.5h1v0.5c0,0.3,0.2,0.5,0.5,0.5
			c0.3,0,0.5-0.2,0.5-0.5v-0.5h0.2c1.2,0,2.2-1,2.2-2.2c0-0.8-0.5-1.5-1.1-1.9c0.4-0.4,0.6-0.9,0.6-1.5c0-1.1-0.9-2.1-2-2.2v-0.5
			c0-0.3-0.2-0.5-0.5-0.5c-0.3,0-0.5,0.2-0.5,0.5v0.5h-1v-0.5c0-0.3-0.2-0.5-0.5-0.5c-0.3,0-0.5,0.2-0.5,0.5v0.5h-0.4
			c-0.3,0-0.5,0.2-0.5,0.5v6.9C59.2,96.2,59.5,96.4,59.7,96.4z M63.4,95.4h-3.2v-2.5h2.7h0.5c0.7,0,1.2,0.6,1.2,1.2
			C64.7,94.9,64.1,95.4,63.4,95.4z M60.2,89.5h2.7c0.7,0,1.2,0.6,1.2,1.2c0,0.7-0.6,1.2-1.2,1.2h-2.7V89.5z"/>
	</g>
	<line class="st2" x1="84.1" y1="127.3" x2="134.6" y2="64.9"/>
	<line class="st0" x1="98.7" y1="115.5" x2="127.4" y2="80"/>
	<g>
		<g>
			<ellipse class="st9" cx="106" cy="22.7" rx="5.6" ry="5.6"/>
			
				<linearGradient id="SVGID_3_" gradientUnits="userSpaceOnUse" x1="106.0137" y1="108.3759" x2="106.0137" y2="119.4897" gradientTransform="matrix(1 0 0 -1 0 136.7)">
				<stop  offset="0" style="stop-color:#16A3FE"/>
				<stop  offset="1" style="stop-color:#41F9A5"/>
			</linearGradient>
			<path class="st12" d="M106,28.3c3.1,0,5.6-2.5,5.6-5.6s-2.5-5.6-5.6-5.6s-5.6,2.5-5.6,5.6S103,28.3,106,28.3z M106,17.9
				c2.7,0,4.9,2.2,4.9,4.9s-2.2,4.9-4.9,4.9c-2.7,0-4.9-2.2-4.9-4.9S103.4,17.9,106,17.9z"/>
		</g>
		
			<linearGradient id="SVGID_4_" gradientUnits="userSpaceOnUse" x1="106.163" y1="117.4058" x2="106.163" y2="110.4597" gradientTransform="matrix(1 0 0 -1 0 136.7)">
			<stop  offset="0" style="stop-color:#16A3FE"/>
			<stop  offset="1" style="stop-color:#41F9A5"/>
		</linearGradient>
		<path class="st13" d="M104.3,25.5h0.3v0.3c0,0.2,0.2,0.3,0.3,0.3s0.3-0.2,0.3-0.3v-0.3h0.7v0.3c0,0.2,0.2,0.3,0.3,0.3
			s0.3-0.2,0.3-0.3v-0.3h0.2c0.9,0,1.6-0.7,1.6-1.6c0-0.6-0.3-1.1-0.8-1.3c0.3-0.3,0.4-0.7,0.4-1.1c0-0.8-0.6-1.5-1.4-1.5v-0.4
			c0-0.2-0.2-0.3-0.3-0.3s-0.3,0.2-0.3,0.3v0.3h-0.7v-0.3c0-0.2-0.2-0.3-0.3-0.3s-0.3,0.2-0.3,0.3v0.3h-0.3c-0.2,0-0.3,0.2-0.3,0.3
			v4.9C104,25.3,104.1,25.5,104.3,25.5z M106.9,24.8h-2.3v-1.7h1.9h0.3c0.5,0,0.9,0.4,0.9,0.9S107.4,24.8,106.9,24.8z M104.7,20.6
			h1.9c0.5,0,0.9,0.4,0.9,0.9s-0.4,0.9-0.9,0.9h-1.9V20.6z"/>
	</g>
	<g>
		<g>
			<ellipse class="st9" cx="111" cy="45.4" rx="5.6" ry="5.6"/>
			
				<linearGradient id="SVGID_5_" gradientUnits="userSpaceOnUse" x1="110.9897" y1="85.7129" x2="110.9897" y2="96.8267" gradientTransform="matrix(1 0 0 -1 0 136.7)">
				<stop  offset="0" style="stop-color:#16A3FE"/>
				<stop  offset="1" style="stop-color:#41F9A5"/>
			</linearGradient>
			<path class="st14" d="M111,50.9c3.1,0,5.6-2.5,5.6-5.6s-2.5-5.6-5.6-5.6c-3.1,0-5.6,2.5-5.6,5.6S107.9,50.9,111,50.9z M111,40.5
				c2.7,0,4.9,2.2,4.9,4.9s-2.2,4.9-4.9,4.9s-4.9-2.2-4.9-4.9S108.3,40.5,111,40.5z"/>
		</g>
		
			<linearGradient id="SVGID_6_" gradientUnits="userSpaceOnUse" x1="111.1257" y1="94.7428" x2="111.1257" y2="87.7967" gradientTransform="matrix(1 0 0 -1 0 136.7)">
			<stop  offset="0" style="stop-color:#16A3FE"/>
			<stop  offset="1" style="stop-color:#41F9A5"/>
		</linearGradient>
		<path class="st15" d="M109.3,48.2h0.3v0.3c0,0.2,0.2,0.3,0.3,0.3c0.1,0,0.3-0.2,0.3-0.3v-0.3h0.7v0.3c0,0.2,0.2,0.3,0.3,0.3
			c0.1,0,0.3-0.2,0.3-0.3v-0.3h0.2c0.9,0,1.6-0.7,1.6-1.6c0-0.6-0.3-1.1-0.8-1.3c0.3-0.3,0.4-0.7,0.4-1.1c0-0.8-0.6-1.5-1.4-1.5
			v-0.4c0-0.2-0.2-0.3-0.3-0.3c-0.1,0-0.3,0.2-0.3,0.3v0.3h-0.7v-0.3c0-0.2-0.2-0.3-0.3-0.3c-0.1,0-0.3,0.2-0.3,0.3v0.3h-0.3
			c-0.2,0-0.3,0.2-0.3,0.3v4.9C108.9,48,109.1,48.2,109.3,48.2z M111.9,47.5h-2.3v-1.7h1.9h0.3c0.5,0,0.9,0.4,0.9,0.9
			C112.7,47.1,112.3,47.5,111.9,47.5z M109.6,43.3h1.9c0.5,0,0.9,0.4,0.9,0.9s-0.4,0.9-0.9,0.9h-1.9V43.3z"/>
	</g>
	<g>
		<g>
			<ellipse class="st9" cx="94.1" cy="37" rx="8.7" ry="8.7"/>
			
				<linearGradient id="SVGID_7_" gradientUnits="userSpaceOnUse" x1="94.0715" y1="90.9026" x2="94.0715" y2="108.3759" gradientTransform="matrix(1 0 0 -1 0 136.7)">
				<stop  offset="0" style="stop-color:#16A3FE"/>
				<stop  offset="1" style="stop-color:#41F9A5"/>
			</linearGradient>
			<path class="st16" d="M94.1,45.8c4.8,0,8.7-3.9,8.7-8.7s-3.8-8.7-8.7-8.7s-8.7,3.9-8.7,8.7S89.3,45.8,94.1,45.8z M94.1,29.4
				c4.2,0,7.6,3.4,7.6,7.6s-3.4,7.6-7.6,7.6c-4.2,0-7.6-3.4-7.6-7.6S89.9,29.4,94.1,29.4z"/>
		</g>
		
			<linearGradient id="SVGID_8_" gradientUnits="userSpaceOnUse" x1="94.3571" y1="105.0996" x2="94.3571" y2="94.1788" gradientTransform="matrix(1 0 0 -1 0 136.7)">
			<stop  offset="0" style="stop-color:#16A3FE"/>
			<stop  offset="1" style="stop-color:#41F9A5"/>
		</linearGradient>
		<path class="st17" d="M91.4,41.4h0.5v0.5c0,0.3,0.2,0.5,0.5,0.5c0.3,0,0.5-0.2,0.5-0.5v-0.5H94v0.5c0,0.3,0.2,0.5,0.5,0.5
			s0.5-0.2,0.5-0.5v-0.5h0.3c1.4,0,2.5-1.1,2.5-2.5c0-0.9-0.5-1.7-1.2-2.1c0.4-0.4,0.7-1,0.7-1.7c0-1.3-1-2.3-2.2-2.4v-0.6
			c0-0.3-0.2-0.5-0.5-0.5c-0.3,0-0.5,0.2-0.5,0.5v0.5H93v-0.5c0-0.3-0.2-0.5-0.5-0.5c-0.3,0-0.5,0.2-0.5,0.5v0.5h-0.5
			c-0.3,0-0.5,0.2-0.5,0.5v7.6C90.9,41.1,91.1,41.4,91.4,41.4z M95.5,40.3H92v-2.7h3h0.5c0.8,0,1.4,0.6,1.4,1.4
			C96.9,39.8,96.3,40.3,95.5,40.3z M91.9,33.8h3c0.8,0,1.4,0.6,1.4,1.4s-0.6,1.4-1.4,1.4h-3V33.8z"/>
	</g>
</g>
</svg>
